# xmcd
#
# Track frame offsets:
#	150
#	11462
#	22655
#	34990
#	44897
#	56590
#	73997
#	87185
#	96380
#	108845
#	118047
#	131327
#	152717
#	163725
#	176510
#	192317
#	205642
#	215005
#	224707
#	236917
#	253142
#	266395
#	280777
#	294292
#	304065
#	312127
#	321707
#	333712
#
# Disc length: 4637 seconds
#
# Revision: 2
# Processed by: cddbd v1.4PL0 Copyright (c) Steve Scherf et al.
# Submitted via: MusicWizard 6.0.0
#
DISCID=ad121b1c
DTITLE=Johnny Cash - The Man In Black, 1963-1969 CD 2/6
DYEAR=1995
DGENRE=Country
TTITLE0=Dark As A Dungeon
TTITLE1=Bottom Of The Mountain
TTITLE2=Understand Your Man
TTITLE3=Time  And Time Again
TTITLE4=I Still Miss Someone
TTITLE5=Hardin Wouldn't Run
TTITLE6=Mama, You've Been On My Mind
TTITLE7=A Certain Kinda Hurtin'
TTITLE8=My Old Faded Rose
TTITLE9=How Did You Get Away From Me
TTITLE10=Bad News
TTITLE11=A Cup Of Coffee
TTITLE12=Dirty Old Egg Sucking Hound
TTITLE13=The One On The Right Is On The Left
TTITLE14=Concerning Your New Song
TTITLE15=The Bug That Tried To Crawl Around The World
TTITLE16=Flushed From The Bathroom Of Your Heart
TTITLE17=Dirty Old Egg Sucking Dog
TTITLE18=Take Me Home
TTITLE19=The Song Of The Coward
TTITLE20=Please Don't Play Red River Valley
TTITLE21=Foolish Questions
TTITLE22=The Singing Star's Queen
TTITLE23=Austin Prison
TTITLE24=Boa Constrictor
TTITLE25=Everybody Loves A Nut
TTITLE26=The Sound Of Laughter
TTITLE27=Joe Bean
EXTD=(c)1995 Bear Family Germany\nOriginal Columbia Records
EXTT0=
EXTT1=
EXTT2=
EXTT3=
EXTT4=
EXTT5=
EXTT6=
EXTT7=
EXTT8=
EXTT9=
EXTT10=
EXTT11=
EXTT12=
EXTT13=
EXTT14=
EXTT15=
EXTT16=
EXTT17=
EXTT18=
EXTT19=
EXTT20=
EXTT21=
EXTT22=
EXTT23=
EXTT24=
EXTT25=
EXTT26=
EXTT27=
PLAYORDER=
